<?xml version="1.0" encoding="UTF-8" standalone="no"?>
<!-- Created with Inkscape (http://www.inkscape.org/) -->

<svg
   xmlns:dc="http://purl.org/dc/elements/1.1/"
   xmlns:cc="http://creativecommons.org/ns#"
   xmlns:rdf="http://www.w3.org/1999/02/22-rdf-syntax-ns#"
   xmlns:svg="http://www.w3.org/2000/svg"
   xmlns="http://www.w3.org/2000/svg"
   xmlns:sodipodi="http://sodipodi.sourceforge.net/DTD/sodipodi-0.dtd"
   xmlns:inkscape="http://www.inkscape.org/namespaces/inkscape"
   width="65mm"
   height="65mm"
   viewBox="0 0 65 65"
   version="1.1"
   id="svg8"
   inkscape:version="0.92.3 (2405546, 2018-03-11)"
   sodipodi:docname="icon2.svg">
  <defs
     id="defs2" />
  <sodipodi:namedview
     id="base"
     pagecolor="#ffffff"
     bordercolor="#666666"
     borderopacity="1.0"
     inkscape:pageopacity="0.0"
     inkscape:pageshadow="2"
     inkscape:zoom="0.98994949"
     inkscape:cx="151.02909"
     inkscape:cy="153.18321"
     inkscape:document-units="mm"
     inkscape:current-layer="layer1"
     showgrid="false"
     inkscape:window-width="1920"
     inkscape:window-height="1057"
     inkscape:window-x="-8"
     inkscape:window-y="-8"
     inkscape:window-maximized="1" />
  <metadata
     id="metadata5">
    <rdf:RDF>
      <cc:Work
         rdf:about="">
        <dc:format>image/svg+xml</dc:format>
        <dc:type
           rdf:resource="http://purl.org/dc/dcmitype/StillImage" />
        <dc:title></dc:title>
      </cc:Work>
    </rdf:RDF>
  </metadata>
  <g
     inkscape:label="Layer 1"
     inkscape:groupmode="layer"
     id="layer1"
     transform="translate(0,-232)">
    <path
       style="fill:#ff7977;fill-opacity:1;stroke:none;stroke-width:0.26458332;stroke-opacity:1"
       id="path1997"
       sodipodi:type="arc"
       sodipodi:cx="32.339611"
       sodipodi:cy="264.79404"
       sodipodi:rx="30.468725"
       sodipodi:ry="31.1369"
       sodipodi:start="2.9225538"
       sodipodi:end="2.9055194"
       sodipodi:open="true"
       d="M 2.5988827,271.55982 A 30.468725,31.1369 0 0 1 25.592421,234.43019 30.468725,31.1369 0 0 1 62.022872,257.76964 30.468725,31.1369 0 0 1 39.339618,295.09806 30.468725,31.1369 0 0 1 2.71597,272.07654" />
    <path
       style="fill:#ffffff;fill-opacity:1;stroke:none;stroke-width:0.41605252"
       id="path852"
       sodipodi:type="arc"
       sodipodi:cx="15.494539"
       sodipodi:cy="-277.67291"
       sodipodi:rx="5.2751336"
       sodipodi:ry="5.022594"
       sodipodi:start="2.9225538"
       sodipodi:end="2.9055194"
       sodipodi:open="true"
       d="m 10.345446,-276.58155 a 5.2751336,5.022594 0 0 1 3.980934,-5.98926 5.2751336,5.022594 0 0 1 6.307303,3.76481 5.2751336,5.022594 0 0 1 -3.927213,6.02133 5.2751336,5.022594 0 0 1 -6.340753,-3.71353"
       transform="scale(1,-1)" />
    <path
       style="fill:#ffffff;fill-opacity:1;stroke:none;stroke-width:0.38158751"
       id="path852-5"
       sodipodi:type="arc"
       sodipodi:cx="43.691471"
       sodipodi:cy="274.33206"
       sodipodi:rx="5.2117558"
       sodipodi:ry="4.2763124"
       sodipodi:start="2.9225538"
       sodipodi:end="2.9055194"
       sodipodi:open="true"
       d="m 38.604241,275.26127 a 5.2117558,4.2763124 0 0 1 3.933106,-5.09935 5.2117558,4.2763124 0 0 1 6.231524,3.20542 5.2117558,4.2763124 0 0 1 -3.88003,5.12665 5.2117558,4.2763124 0 0 1 -6.264572,-3.16176" />
    <path
       style="fill:#ffffff;stroke:none;stroke-width:0.26456779px;stroke-linecap:butt;stroke-linejoin:miter;stroke-opacity:1"
       d="m 16.979931,274.63351 3.210292,-25.87441 31.062363,-2.13384 -3.48062,27.48396 c -0.53454,3.20723 -1.66415,2.29209 -2.46596,-0.64787 -1.87089,0 3.26726,-22.83244 2.46545,-24.16879 -1.06908,1.60362 -22.764777,2.93565 -24.635664,2.13384 0,0 -1.609731,25.87548 -3.213348,24.53913"
       id="path871"
       inkscape:connector-curvature="0"
       sodipodi:nodetypes="cccccccc" />
  </g>
</svg>
